<?xml version="1.0" encoding="UTF-8" standalone="no"?>
<!DOCTYPE svg PUBLIC "-//W3C//DTD SVG 1.1//EN" "http://www.w3.org/Graphics/SVG/1.1/DTD/svg11.dtd">
<svg width="100%" height="100%" viewBox="0 0 387 179" version="1.1" xmlns="http://www.w3.org/2000/svg" xmlns:xlink="http://www.w3.org/1999/xlink" xml:space="preserve" xmlns:serif="http://www.serif.com/" style="fill-rule:evenodd;clip-rule:evenodd;stroke-linejoin:round;stroke-miterlimit:2;">
    <g transform="matrix(1,0,0,1,193.1,89.5)">
        <path d="M-20.45,16.077L-15.15,14.777C-15.717,13.844 -16.15,12.927 -16.45,12.027L-18.65,11.077L-20.45,16.077M-28.3,-4.523C-28.3,-5.723 -28.183,-6.84 -27.95,-7.873L-94.9,-4.573L-28,-1.273L-28.3,-4.523M-8.312,-35.966L-19.695,-48.509L-12.241,-31.623L-13.135,-26.523L-11.369,-28.426L-9.647,-30.057L-7.657,-31.132L-8.312,-35.966ZM0.5,0.027C2.033,-1.14 3.483,-2.54 4.85,-4.173L-0.1,-8.423L-2.6,-6.223L-2.7,-6.123L-4.35,-4.323L0.5,0.027M20.5,16.077L18.65,11.277L16.35,12.177L15.2,14.627L20.5,16.077M0.2,49.4L3.65,23.977L4.65,22.927L-0.05,23.577L-4,23.127L-3.25,23.977L0.2,49.4M48.008,-88.621L21.539,-29.048L22.634,-22.889L31.15,-15.723L193.15,-5.523L193.15,-3.473L31.15,6.577L20.55,16.127L11.2,27.627L1.55,89.5L-1.2,89.5L-10.75,27.627L-20.6,16.127L-31.2,6.577L-193.1,-3.423L-193.1,-5.473L-31.2,-15.723L-21.85,-24.263L-21.018,-30.082L-46.24,-88.213L-44.726,-89.5L-0.499,-39.572L-0.21,-31.961L0.614,-31.992L1.045,-39.273L46.511,-89.5M20.741,-47.971L9.329,-36.1L8.743,-30.655L10.571,-29.544L12.335,-28.229L13.978,-26.561L12.856,-31.386L20.741,-47.971ZM28.4,-7.823L28.75,-4.523L28.4,-1.323L94.85,-4.573L28.4,-7.823" style="fill-opacity:0.4;"/>
        <g transform="matrix(1,0,0,1,-193.1,-89.5)">
            <path d="M205.55,108.477L193.6,103.877L188.15,105.927L186.35,104.477L193.6,101.727L208.95,107.677L201.55,115.877L193.4,174.35L185.25,115.877L177.85,107.677L181.3,106.377L183.05,107.827L181.3,108.477L187.15,114.927L193.4,157.9L199.7,114.927L205.55,108.477ZM198.55,106.577L200.95,107.877C198.583,109.41 195.983,110.177 193.15,110.177C190.083,110.177 187.3,109.294 184.8,107.527C182.333,105.76 180.6,103.46 179.6,100.627L182.05,100.627C183.017,102.794 184.5,104.544 186.5,105.877C188.5,107.21 190.717,107.877 193.15,107.877C194.95,107.877 196.75,107.444 198.55,106.577ZM205.05,86.227C206.783,89.394 207.65,92.56 207.65,95.727L207.2,99.277C206.7,101.277 205.833,103.044 204.6,104.577C203.533,104.144 202.75,103.877 202.25,103.777C203.383,102.544 204.2,101.127 204.7,99.527C205.1,98.227 205.3,96.96 205.3,95.727C205.3,93.227 204.7,90.744 203.5,88.277L205.05,86.227ZM163.25,76.827L171.4,69.477L172.5,72.477L171.75,73.227L171.15,74.277L170.55,72.927L164.05,78.827L37,85.027L164.05,91.277L170.55,97.127L175.15,85.177L173.05,79.577L173.95,78.927L174.7,78.277L177.3,85.177L171.35,100.577L163.25,93.227L6.5,85.127L163.25,76.827ZM222.3,78.827L215.8,72.927L211.2,84.877L213.5,91.077L212.05,92.877L209.05,84.877L214.95,69.477L223.1,76.827L379.85,84.927L223.1,93.227L214.95,100.577L213.8,97.527L215.3,95.877L215.8,97.127L222.3,91.277L349.35,85.027L222.3,78.827ZM190.2,95.277L192.3,96.827C188.8,98.627 185.5,99.527 182.4,99.527L179.1,99.177C177.2,98.744 175.467,97.96 173.9,96.827L174.85,94.627C176.05,95.56 177.35,96.244 178.75,96.677L182.4,97.227C184.733,97.227 187.333,96.577 190.2,95.277ZM195.15,94.177C196.783,95.144 198.583,95.91 200.55,96.477L204.15,97.177C204.15,98.144 203.967,98.927 203.6,99.527C202.5,99.46 201.05,99.144 199.25,98.577C196.917,97.844 194.833,96.927 193,95.827C190.1,94.127 187.317,91.71 184.65,88.577C184.65,87.277 184.9,86.344 185.4,85.777C186.167,86.844 187.383,88.127 189.05,89.627C191.117,91.494 193.15,93.01 195.15,94.177ZM215.85,76.177C217.917,78.777 218.95,81.744 218.95,85.077C218.95,88.344 217.95,91.277 215.95,93.877C213.95,96.444 211.4,98.16 208.3,99.027L208.6,96.477C210.967,95.61 212.883,94.144 214.35,92.077C215.85,89.977 216.6,87.644 216.6,85.077C216.6,82.677 215.95,80.494 214.65,78.527L215.85,76.177ZM190.25,76.627L192.5,77.877L188.45,81.277C186.383,83.344 184.783,85.527 183.65,87.827C182.95,89.194 182.3,90.91 181.7,92.977L181,95.677L181.05,96.177C180.55,96.077 179.767,95.694 178.7,95.027L179.65,91.527C180.35,89.36 181.15,87.444 182.05,85.777C183.317,83.444 184.917,81.394 186.85,79.627L190.25,76.627ZM201.8,85.377L203.1,83.177C204.6,80.244 205.35,77.16 205.35,73.927L207.65,73.927C207.65,77.66 206.767,81.194 205,84.527L203,87.777C201.233,90.144 199.067,92.277 196.5,94.177C195.5,93.644 194.8,93.194 194.4,92.827C197.5,90.66 199.967,88.177 201.8,85.377ZM167.9,85.077C167.9,81.91 168.833,79.06 170.7,76.527C172.533,74.027 174.917,72.294 177.85,71.327L177.7,73.827C175.467,74.76 173.667,76.244 172.3,78.277C170.933,80.31 170.25,82.577 170.25,85.077C170.25,87.277 170.8,89.327 171.9,91.227L170.8,93.777C168.867,91.144 167.9,88.244 167.9,85.077ZM179.1,70.977C179.258,70.296 179.721,68.988 179.721,68.988L182.382,68.398C182.382,68.398 181.847,69.909 181.65,70.527L181.2,72.727L181,74.327C181,76.827 181.683,79.41 183.05,82.077L182.5,83.377L181.8,84.527C179.733,81.06 178.7,77.66 178.7,74.327L178.85,72.577L179.1,70.977ZM201.85,81.627L200.95,84.227C199.983,82.927 197.083,80.427 192.25,76.727C191.217,75.96 189.6,75.144 187.4,74.277C185.167,73.377 183.5,72.927 182.4,72.927L182.35,72.927L182.75,70.627C185.883,70.727 189.433,72.01 193.4,74.477L196.15,76.377C198.183,77.844 200.083,79.594 201.85,81.627ZM202.15,73.227C200.717,73.527 198.783,74.294 196.35,75.527L194.8,73.727C197.6,72.26 199.717,71.344 201.15,70.977C202.883,70.544 204.9,70.51 207.2,70.877C209.367,71.277 211.283,72.11 212.95,73.377L211.9,75.477C210.8,74.644 209.567,73.994 208.2,73.527L202.15,73.227ZM199.112,60.975C199.92,61.257 200.885,61.869 201.571,62.322C204.646,64.351 205.99,66.447 206.598,67.939L207.432,70.418L205.159,70.232C204.924,69.191 204.519,68.147 203.942,67.16C203.269,66.01 202.313,65.036 201.272,64.355C200.624,63.933 199.787,63.501 198.976,63.159L199.112,60.975ZM189.35,51.288L190.063,59.479L188.44,59.664L187.888,52.199L162.052,23.832L177.707,58.716L176.449,66.918L188.573,64.28L188.701,63.178L190.228,62.909L190.393,65.823L174.293,69.429L175.545,59.118L153.871,10.641L189.35,51.288ZM197.704,51.288L196.651,64.086L196.58,65.81L203.209,67.332L202.37,66.151L201.199,65.076L198.274,64.271L199.166,52.199L226.077,22.878L209.348,58.716L210.605,66.918L206.208,65.961L206.995,67.107L207.43,68.235L212.761,69.429L211.509,59.118L234.047,10.959L197.704,51.288ZM196.16,62.252C196.16,62.252 194.433,61.964 193.533,61.964C192.108,61.964 189.907,62.031 187.807,62.669C186.518,63.061 185.415,64.116 184.654,64.597L181.415,65.193C182.261,63.961 183.999,62.261 186.094,61.221C188.475,60.039 191.75,59.952 193.558,59.952C194.161,59.952 195.014,59.994 196.286,60.238L196.16,62.252Z" style="fill:rgb(208,210,211);fill-opacity:0.6;"/>
        </g>
    </g>
</svg>
